<?xml version="1.0" encoding="UTF-8" standalone="no"?>
<!DOCTYPE svg PUBLIC "-//W3C//DTD SVG 1.1//EN" "http://www.w3.org/Graphics/SVG/1.1/DTD/svg11.dtd">
<svg version="1.1" xmlns="http://www.w3.org/2000/svg" xmlns:xlink="http://www.w3.org/1999/xlink" preserveAspectRatio="xMidYMid meet" viewBox="0 0 50 50" width="50" height="50"><defs><path d="M27.93 6.89C27.9 6.82 26.79 4.56 24.17 3.54C24.25 3.65 25.06 4.95 23.3 9.15C23.3 9.15 22.31 6.83 19.58 5.09C18.76 9.52 18.49 11.43 19.81 15.69C19.6 16.7 19.54 17.66 20.16 18.37C20.67 18.94 21.39 19.55 21.3 19.94C15.99 21.74 12.16 26.77 12.16 32.68C12.16 40.1 18.19 46.12 25.61 46.13C33.04 46.12 39.06 40.1 39.06 32.68C39.06 26.79 35.27 21.79 30 19.97C29.95 19.29 30.13 18.95 31.01 18.54C32.11 18.02 31.7 15.82 30.37 15.06C30.24 14.99 30.04 14.91 29.78 14.82C29.8 13.89 30.52 13.01 31.24 12.34C32.16 11.47 32.4 9.04 31.82 8.05C31.24 7.07 31.16 5.83 32.05 3.13C32.04 3.13 32.04 3.12 32.03 3.13C30.84 3.24 29.26 3.95 27.93 6.89ZM27.41 10.95C28.05 11.01 28.4 7.7 30.02 6.37C30.95 8.75 31.53 10.31 29.85 11.76C28.16 13.21 28.32 14.13 28.28 15.18C28.24 16.17 28.17 16.69 26.83 16.86C25.5 17.03 24.4 15.18 24.16 12.45C23.93 9.73 25.96 7.41 25.73 6.25C27.06 8.05 26.77 10.89 27.41 10.95ZM22.25 10.54C22.83 12.11 22.54 13.79 24.34 16.74C24.34 16.74 24.34 16.75 24.34 16.75C24.34 16.75 24.34 16.75 24.33 16.75C24.33 16.75 24.33 16.75 24.33 16.75C24.33 16.75 24.33 16.75 24.33 16.75C24.2 16.81 22.81 16.84 21.26 15.18C19.64 13.44 19.58 11.01 20.8 7.59C20.8 7.59 21.67 8.98 22.25 10.54ZM26.95 25.81C30.15 24.69 37.18 26.33 37.99 31.75C35.7 29.32 30.99 28.34 26.6 32.88C22.54 37.08 16.71 40.81 14.28 34.8C12.54 30.51 15.12 22.31 24.02 21.55C19.73 26.65 23.73 26.93 26.95 25.81ZM23.76 42.76C26.02 42.47 31 40.77 33.58 39.4C32.34 43.63 27.15 45.23 23.76 42.76ZM20.19 42.97C18.89 42.76 17.67 41.75 17.27 40.42C18.45 41 19.47 41.69 20.19 42.97Z" id="b24RBdXgH3"></path></defs><g><g><g><use xlink:href="#b24RBdXgH3" opacity="1" fill="#006600" fill-opacity="1"></use><g><use xlink:href="#b24RBdXgH3" opacity="1" fill-opacity="0" stroke="#000000" stroke-width="1" stroke-opacity="0"></use></g></g></g></g></svg>