<?xml version="1.0" encoding="UTF-8" standalone="no"?>
<!DOCTYPE svg PUBLIC "-//W3C//DTD SVG 1.1//EN" "http://www.w3.org/Graphics/SVG/1.1/DTD/svg11.dtd">
<svg version="1.1" xmlns="http://www.w3.org/2000/svg" xmlns:xlink="http://www.w3.org/1999/xlink" preserveAspectRatio="xMidYMid meet" viewBox="0 0 50 50" width="50" height="50"><defs><path d="M12.54 6C12.24 6.06 11.43 11.14 11.95 12.6C12.19 13.25 12.7 13.81 13.18 14.23C10.91 18.31 12.35 21.74 14.17 23.16C16.04 24.62 17.5 26.31 16.33 28.3C15.16 30.28 14.02 29.08 13.76 30.52C13.51 31.91 16.22 34.53 17.5 34.43C18.84 34.32 17.91 31.74 19.07 31.8C19.37 32.61 20.85 36.68 23.51 44L26.19 43.59C24.1 37.09 22.94 33.48 22.71 32.75C26.51 33.14 27.12 32.1 28.71 32.03C30.77 31.93 32.01 32.77 34.24 32.6C36.47 32.44 36.8 31.86 39.52 31.2C42.25 30.54 42.66 31.61 43.57 31.28C44.48 30.95 44.96 29.77 43.73 26.58C42.5 23.36 41.63 22.73 40.6 20.3C39.34 17.35 40.42 16.06 39.11 12.96C38.04 10.41 37.4 9.88 36.94 9.9C36.94 9.9 36.94 9.9 36.94 9.9C36.94 9.9 36.93 9.9 36.93 9.9C36.93 9.9 36.93 9.9 36.93 9.9C36.93 9.9 36.93 9.9 36.93 9.9C36.93 9.9 36.93 9.9 36.93 9.9C36.93 9.9 36.93 9.9 36.92 9.9C36.92 9.9 36.92 9.9 36.92 9.9C36.92 9.9 36.92 9.9 36.92 9.9C36.92 9.9 36.92 9.9 36.92 9.9C36.82 9.91 36.72 9.94 36.64 9.98C36.14 10.23 34.57 11.31 32.01 11.47C29.45 11.64 27.64 10.81 25 11.06C22.36 11.3 22.03 12.79 19.47 13.12C18.15 13.29 17.19 13.2 16.56 13.07C16.81 12.26 16.98 11.74 16.74 10.96C16.46 10.05 12.86 5.97 12.54 6C12.54 6 12.54 6 12.54 6C12.54 6 12.54 6 12.54 6ZM15.69 11.55C15.86 12.13 15.34 13.3 14.99 13.47C14.64 13.65 13.35 13.24 13.06 12.42C12.77 11.6 13.12 10.9 13.65 9.21C14.58 9.85 15.51 10.96 15.69 11.55ZM36.31 11.75C36.31 11.75 36.31 11.75 36.31 11.75C36.31 11.75 36.31 11.75 36.31 11.75C36.31 11.75 36.31 11.75 36.31 11.75C36.31 11.75 36.31 11.75 36.31 11.75C36.31 11.75 36.32 11.75 36.32 11.75C36.32 11.75 36.32 11.75 36.32 11.75C36.32 11.75 36.32 11.75 36.32 11.75C36.32 11.75 36.32 11.75 36.32 11.75C36.32 11.75 36.33 11.75 36.33 11.75C36.33 11.75 36.33 11.75 36.33 11.75C36.33 11.75 36.33 11.75 36.33 11.75C36.33 11.75 36.34 11.75 36.34 11.75C36.59 11.74 36.85 11.83 37.06 11.97C37.75 12.52 37.79 13.55 37.48 14.31C36.86 15.51 35.66 16.25 34.82 17.29C34.46 17.72 34.15 18.38 33.52 18.42C33.08 18.37 33.11 17.78 33.22 17.46C33.76 15.96 34.39 14.47 35.04 13C35.26 12.45 35.62 11.78 36.3 11.75C36.3 11.75 36.3 11.75 36.3 11.75C36.3 11.75 36.3 11.75 36.3 11.75C36.3 11.75 36.3 11.75 36.3 11.75C36.3 11.75 36.3 11.75 36.31 11.75C36.31 11.75 36.31 11.75 36.31 11.75ZM17.73 14.55C17.73 14.55 17.73 14.55 17.74 14.55C17.74 14.55 17.74 14.55 17.75 14.55C17.75 14.55 17.76 14.55 17.76 14.55C17.77 14.55 17.77 14.55 17.77 14.55C17.78 14.55 17.78 14.55 17.79 14.55C17.8 14.55 17.8 14.55 17.81 14.55C18.11 14.55 18.5 14.61 18.92 14.69C20.13 14.93 19.96 15.85 21.78 16.84C23.59 17.83 25.49 18.07 25 18.98C24.5 19.89 22.97 19.02 20.62 18.32C19.09 17.86 17.81 17.1 17.32 15.76C17.01 14.89 17.22 14.59 17.72 14.55C17.73 14.55 17.73 14.55 17.73 14.55ZM20.94 30.28L19.54 30.81L14.58 15.81L16.1 15.28L20.94 30.28ZM15.86 22.81C13.7 21.47 12.48 20.13 13.82 16.51C14.23 17.77 15.66 22.18 15.86 22.81ZM32.67 20.74C32.88 22.14 31.39 22.64 31.62 23.77C31.85 24.91 32 24.36 32.2 25.32C32.58 27.1 29.05 27.69 28.94 25.7C28.86 24.49 29.7 24.48 29.49 23.66C29.29 22.84 26.81 22.37 26.48 21.23C26.16 20.1 27.71 18.49 28.82 17.12C29.64 18.58 32.47 19.34 32.67 20.74ZM33.8 23.63C33.81 23.64 33.81 23.64 33.81 23.63C33.81 23.63 33.81 23.63 33.81 23.63C33.81 23.64 33.81 23.64 33.81 23.63C33.81 23.63 33.82 23.63 33.82 23.63C33.82 23.64 33.82 23.64 33.82 23.63C33.82 23.63 33.82 23.63 33.82 23.63C33.82 23.64 33.82 23.64 33.82 23.63C33.83 23.63 33.84 23.64 33.84 23.63C33.86 23.63 33.88 23.64 33.89 23.64C34.81 23.64 35.68 24.03 36.55 24.28C37.82 24.76 39.15 25.04 40.38 25.6C41.46 26.08 42.59 26.93 42.72 28.21C42.72 28.58 42.88 29.1 42.55 29.38C42.21 29.52 41.8 29.47 41.45 29.38C40.47 28.9 39.72 28.06 38.85 27.4C37.9 26.55 36.75 25.97 35.59 25.44C34.9 25.06 34.09 24.8 33.55 24.21C33.34 23.99 33.54 23.67 33.8 23.63C33.8 23.63 33.8 23.63 33.8 23.63ZM26.86 23.91C26.98 23.9 27.08 23.94 27.14 24.02C27.81 24.93 25.99 26 25.25 27.57C24.5 29.14 24.09 31.7 23.51 31.7C22.96 31.7 22.31 31.14 21.95 30.4C21.92 30.32 21.72 29.69 21.7 29.61C21.65 29.34 21.65 29.07 21.7 28.81C21.92 27.54 25.64 23.99 26.84 23.91C26.85 23.91 26.85 23.91 26.86 23.91ZM18.08 30.28C17.5 32.27 17.55 33.54 15.98 32.27C14 30.66 15.17 30.28 15.91 29.74C16.5 29.31 17.06 28.97 17.5 28.65C17.61 28.97 18.02 30.12 18.08 30.28Z" id="a5c8Tuie"></path></defs><g><g><g><use xlink:href="#a5c8Tuie" opacity="1" fill="#006600" fill-opacity="1"></use><g><use xlink:href="#a5c8Tuie" opacity="1" fill-opacity="0" stroke="#000000" stroke-width="1" stroke-opacity="0"></use></g></g></g></g></svg>