<?xml version="1.0" encoding="UTF-8" standalone="no"?>
<!DOCTYPE svg PUBLIC "-//W3C//DTD SVG 1.1//EN" "http://www.w3.org/Graphics/SVG/1.1/DTD/svg11.dtd">
<svg version="1.1" xmlns="http://www.w3.org/2000/svg" xmlns:xlink="http://www.w3.org/1999/xlink" preserveAspectRatio="xMidYMid meet" viewBox="0 0 50 50" width="50" height="50"><defs><path d="M40.02 37.8C40.02 37.79 40.02 37.79 40.02 37.79C40.02 37.79 40.02 37.78 40.02 37.78C39.97 37.7 39.75 37.29 39.35 36.56L39.34 36.57C38.04 34.2 37.31 32.89 37.17 32.63C35.98 34.9 30.14 36.11 24.61 36.11C19.08 36.11 13.23 34.9 12.05 32.63C11.9 32.89 11.18 34.2 9.88 36.56L9.87 36.56L9.21 37.76C9.21 37.77 9.2 37.78 9.2 37.79C9.2 37.79 9.2 37.79 9.2 37.79C9.2 37.79 9.2 37.79 9.19 37.8C9.2 37.8 9.2 37.8 9.2 37.8C9.19 37.88 9.18 37.94 9.18 38.01C9.18 40.7 16.1 43.57 24.61 43.57C33.11 43.57 40.03 40.7 40.03 38.01C40.03 37.95 40.03 37.88 40.02 37.8C40.02 37.8 40.02 37.8 40.02 37.8Z" id="c6uweNz3ZU"></path><path d="M28.76 29.56C28.76 29.56 28.76 29.56 28.75 29.56C28.62 30.44 26.85 31.11 24.61 31.11C22.37 31.11 20.6 30.44 20.46 29.56C20.46 29.56 20.46 29.56 20.46 29.56C20.46 29.53 20.46 29.52 20.46 29.51C20.45 29.49 20.45 29.47 20.45 29.45C20.45 29.44 20.45 29.44 20.45 29.43C20.45 29.43 20.45 29.42 20.45 29.4C20.45 28.36 20.45 27.79 20.45 27.68C15.72 28.21 12.34 29.62 12.34 31.28C12.34 33.4 17.83 35.12 24.61 35.12C31.39 35.12 36.88 33.4 36.88 31.28C36.88 29.62 33.5 28.21 28.76 27.68C28.76 27.93 28.76 28.56 28.76 29.56Z" id="agaRPRvke"></path><path d="M20.79 26.92C20.79 27.55 22.36 28.25 24.61 28.25C26.86 28.25 28.43 27.55 28.43 26.92C28.43 26.29 26.86 25.59 24.61 25.59C22.36 25.59 20.79 26.29 20.79 26.92Z" id="a1nYRgslHZ"></path><path d="M12.69 29.6C12.49 29.56 11.5 29.36 9.71 29.01L16.92 26.6L14.52 16.99L21.73 21.79L24.14 12.18L26.54 21.79L36.16 14.58L31.35 24.2L40.97 24.2C36.35 26.51 33.78 27.79 33.27 28.05C34.28 28.35 35.16 28.72 35.84 29.15C36.46 28.73 39.55 26.62 45.11 22.82L34.78 22.59L42.12 8.13L27.46 17.19L23.99 3.3L20.52 17.19L10.1 10.25L14.11 25.16L4.89 29.24L11.79 31.28C12.01 30.49 12.31 29.93 12.69 29.6Z" id="a1owRVbip3"></path><path d="M20.68 29.51C20.68 29.51 21.35 30.84 24.61 30.84C27.87 30.84 28.52 29.51 28.52 29.51C28.52 29.32 28.52 27.86 28.52 27.68C28.52 27.68 28.35 29.02 24.61 29.02C20.86 29.02 20.68 27.68 20.68 27.68C20.68 28.04 20.68 29.32 20.68 29.51Z" id="anhnXVUa7"></path></defs><g><g><g><use xlink:href="#c6uweNz3ZU" opacity="1" fill="#990000" fill-opacity="1"></use><g><use xlink:href="#c6uweNz3ZU" opacity="1" fill-opacity="0" stroke="#000000" stroke-width="1" stroke-opacity="0"></use></g></g><g><use xlink:href="#agaRPRvke" opacity="1" fill="#990000" fill-opacity="1"></use><g><use xlink:href="#agaRPRvke" opacity="1" fill-opacity="0" stroke="#000000" stroke-width="1" stroke-opacity="0"></use></g></g><g><use xlink:href="#a1nYRgslHZ" opacity="1" fill="#990000" fill-opacity="1"></use><g><use xlink:href="#a1nYRgslHZ" opacity="1" fill-opacity="0" stroke="#000000" stroke-width="1" stroke-opacity="0"></use></g></g><g><use xlink:href="#a1owRVbip3" opacity="1" fill="#990000" fill-opacity="1"></use><g><use xlink:href="#a1owRVbip3" opacity="1" fill-opacity="0" stroke="#000000" stroke-width="1" stroke-opacity="0"></use></g></g><g><use xlink:href="#anhnXVUa7" opacity="1" fill="#990000" fill-opacity="1"></use><g><use xlink:href="#anhnXVUa7" opacity="1" fill-opacity="0" stroke="#000000" stroke-width="1" stroke-opacity="0"></use></g></g></g></g></svg>